<?xml version="1.0" standalone="no"?>
<!DOCTYPE svg PUBLIC "-//W3C//DTD SVG 20010904//EN"
 "http://www.w3.org/TR/2001/REC-SVG-20010904/DTD/svg10.dtd">
<svg version="1.0" xmlns="http://www.w3.org/2000/svg"
 width="360.000000pt" height="360.000000pt" viewBox="0 0 360.000000 360.000000"
 preserveAspectRatio="xMidYMid meet">

<g transform="translate(0.000000,360.000000) scale(0.100000,-0.100000)"
fill="#000000" stroke="none">
<path d="M1443 2410 l-48 -90 -296 0 c-313 0 -384 -7 -459 -45 -57 -29 -135
-111 -163 -173 -34 -72 -31 -207 5 -284 35 -76 95 -138 165 -174 56 -28 63
-29 231 -32 165 -3 177 -2 225 20 l52 23 645 0 645 0 52 -23 c48 -22 60 -23
225 -20 168 3 175 4 231 32 70 36 130 98 165 174 36 77 39 212 5 284 -28 62
-106 144 -163 173 -76 38 -145 45 -477 45 -172 0 -313 3 -313 6 0 4 20 45 46
90 l45 84 -385 0 -385 0 -48 -90z m177 8 c-1 -13 -5 -42 -9 -65 l-8 -43 34 0
c27 0 34 -4 31 -17 -2 -13 -15 -19 -47 -21 -24 -2 -48 1 -52 5 -8 8 3 95 17
146 8 25 34 21 34 -5z m130 14 c0 -12 -20 -124 -26 -144 -7 -22 -34 -24 -34
-2 0 8 5 46 11 85 10 56 15 69 30 69 11 0 19 -4 19 -8z m61 -24 c0 -18 4 -42
8 -52 6 -15 11 -10 29 33 16 37 28 51 42 51 11 0 20 -2 20 -5 0 -3 -18 -42
-40 -86 -50 -99 -68 -102 -87 -14 -18 87 -17 105 7 105 16 0 20 -7 21 -32z
m227 20 c-3 -7 -21 -14 -41 -16 -43 -4 -51 -29 -12 -34 37 -4 36 -22 -1 -26
-22 -2 -34 -9 -37 -23 -4 -16 0 -19 27 -19 38 0 47 -6 39 -26 -6 -16 -98 -20
-107 -5 -5 7 9 117 19 149 3 8 24 12 61 12 40 0 55 -3 52 -12z m772 -321 c17
-10 50 -64 50 -81 0 -3 -15 -6 -33 -6 -24 0 -35 6 -42 23 -7 16 -20 23 -47 25
-51 4 -68 -23 -68 -107 0 -53 4 -69 22 -88 37 -40 98 -28 98 18 0 26 -4 29
-30 29 -25 0 -30 4 -30 25 0 24 2 25 65 25 l65 0 0 -65 c0 -63 -1 -66 -32 -85
-46 -28 -136 -27 -172 1 -40 31 -56 71 -56 139 0 94 30 145 95 163 28 8 92 -1
115 -16z m-1881 -2 c16 -8 31 -22 35 -30 11 -30 6 -73 -10 -90 -15 -15 -15
-18 5 -39 23 -24 27 -66 10 -98 -17 -31 -71 -48 -154 -48 l-75 0 0 160 0 160
80 0 c52 0 91 -5 109 -15z m290 0 c54 -27 62 -117 15 -154 l-23 -18 35 -67 36
-67 -38 3 c-36 3 -41 7 -69 60 -23 44 -35 58 -52 58 -20 0 -22 -6 -25 -57 -3
-57 -3 -58 -35 -61 l-33 -3 0 160 0 161 80 0 c52 0 91 -5 109 -15z m311 -10
c0 -24 -2 -25 -75 -25 l-75 0 0 -40 0 -40 65 0 c63 0 65 -1 65 -25 0 -24 -2
-25 -66 -25 l-65 0 3 -41 3 -42 70 -1 c69 -1 70 -2 73 -28 l3 -28 -105 0 -106
0 0 160 0 160 105 0 105 0 0 -25z m247 -120 c29 -77 56 -148 59 -157 4 -15 -1
-18 -30 -18 -31 0 -36 4 -46 35 -11 34 -13 35 -66 35 -53 0 -55 -1 -70 -35
-12 -30 -19 -35 -49 -35 l-34 0 28 78 c16 42 39 104 51 137 13 33 27 70 31 83
7 19 15 23 41 20 32 -3 33 -5 85 -143z m165 79 l3 -66 50 66 c46 61 52 66 87
66 35 0 49 -12 29 -24 -4 -3 -27 -30 -51 -61 l-42 -55 39 -62 c22 -35 47 -75
57 -90 l18 -28 -40 0 c-39 0 -42 3 -77 60 -20 33 -40 60 -44 60 -19 0 -31 -28
-31 -72 l0 -48 -35 0 -35 0 0 160 0 160 35 0 34 0 3 -66z m288 -94 l0 -160
-35 0 -35 0 0 160 0 160 35 0 35 0 0 -160z m188 58 l62 -103 0 103 0 102 35 0
35 0 0 -160 0 -160 -35 0 c-33 0 -37 4 -91 95 -31 53 -61 98 -65 101 -5 3 -9
-40 -9 -95 l0 -101 -30 0 -30 0 0 160 0 160 33 0 c31 0 36 -6 95 -102z"/>
<path d="M810 2030 c0 -40 0 -40 40 -40 29 0 42 5 50 19 13 25 13 27 -6 45 -8
9 -31 16 -50 16 -33 0 -34 -1 -34 -40z"/>
<path d="M810 1899 l0 -40 48 3 c40 3 47 6 50 26 5 34 -15 52 -59 52 -39 0
-39 0 -39 -41z"/>
<path d="M1100 2020 l0 -50 33 0 c36 0 67 25 67 53 0 26 -29 47 -66 47 l-34 0
0 -50z"/>
<path d="M1680 2005 c-6 -16 -14 -42 -17 -57 -5 -27 -4 -28 31 -28 41 0 41 -4
11 80 l-13 35 -12 -30z"/>
<path d="M2211 1527 c-45 -16 -76 -57 -67 -91 9 -35 41 -63 100 -85 53 -19 67
-41 46 -66 -18 -22 -48 -18 -76 10 -16 16 -36 25 -55 25 -27 0 -30 -3 -23 -22
16 -54 67 -82 136 -76 61 6 98 38 98 84 0 44 -25 70 -95 97 -45 17 -61 29 -63
45 -2 16 3 23 22 28 32 8 66 -3 66 -22 0 -9 11 -14 35 -14 23 0 35 5 35 14 0
25 -41 65 -78 76 -44 12 -38 12 -81 -3z"/>
<path d="M1230 1374 l0 -155 33 3 32 3 5 89 5 89 55 -89 c49 -79 59 -89 88
-92 l32 -3 0 155 0 156 -35 0 -34 0 -3 -91 -3 -90 -54 90 c-50 86 -55 91 -87
91 l-34 0 0 -156z"/>
<path d="M1532 1378 l3 -153 100 0 100 0 3 28 3 27 -71 0 -71 0 3 38 3 37 55
1 c52 1 55 2 58 27 3 27 2 27 -57 27 l-61 0 0 35 0 35 70 0 c68 0 70 1 70 25
l0 25 -105 0 -106 0 3 -152z"/>
<path d="M1765 1473 c7 -32 23 -102 35 -156 l22 -98 31 3 c31 3 33 6 53 85 12
45 24 88 26 95 3 7 13 -23 23 -67 22 -100 30 -115 61 -115 31 0 36 13 69 162
32 148 32 148 -4 148 -33 0 -34 -1 -52 -107 -7 -40 -15 -73 -19 -73 -4 0 -16
39 -26 88 -19 84 -20 87 -49 90 l-30 3 -19 -88 c-10 -48 -22 -92 -26 -96 -4
-4 -12 25 -19 65 -21 122 -19 118 -56 118 l-33 0 13 -57z"/>
</g>
</svg>
