<?xml version="1.0" standalone="yes"?>
<svg xmlns="http://www.w3.org/2000/svg" width="360" height="360">
<path style="fill:#010308; stroke:none;" d="M0 0L0 360L360 360L360 0L0 0z"/>
<path style="fill:#d52142; stroke:none;" d="M137 128L139 128L134 138L187 138C193.592 138 203.745 139.911 209.895 137.397C217.6 134.246 226.611 116.791 228 109L170 109L147.39 110.028L137 128z"/>
<path style="fill:#f2f0f3; stroke:none;" d="M159 116L157 132L167 131L167 130L160 130L162 116L159 116z"/>
<path style="fill:#fdb827; stroke:none;" d="M171.333 116.667L171.667 117.333L171.333 116.667z"/>
<path style="fill:#f2f0f3; stroke:none;" d="M172 116L169 132C174.491 130.394 173.755 120.869 175 116L172 116M177 116L180 132C186.137 130.081 188.689 121.552 191 116L181 127L180 116L177 116z"/>
<path style="fill:#fdb827; stroke:none;" d="M180 116L180 119L181 119L180 116z"/>
<path style="fill:#f2f0f3; stroke:none;" d="M193 116L191 132L201 132L201 130L194 130C195.178 126.118 197.048 125.301 201 125L201 123C193.735 121.833 197.777 118.17 203 118L203 116L193 116z"/>
<path style="fill:#fdb827; stroke:none;" d="M203.333 116.667L203.667 117.333L203.333 116.667M174.333 117.667L174.667 118.333L174.333 117.667M190 117L191 118L190 117M158.333 118.667L158.667 119.333L158.333 118.667M192.333 118.667L192.667 119.333L192.333 118.667M196 118L196 119L203 119L196 118M177.333 119.667L177.667 120.333L177.333 119.667M189 119L190 120L189 119M195 119L195 122L196 122L195 119M161.333 120.667L161.667 121.333L161.333 120.667M185 120L186 121L185 120M170 121L170 124L171 124L170 121M188 121L189 122L188 121M184 122L185 123L184 122M196 122L196 123L201 123L196 122M173.333 123.667L173.667 124.333L173.333 123.667M187 123L188 124L187 123M201 123L202 124L201 123M157.333 124.667L157.667 125.333L157.333 124.667M181 124L183 127L181 124M183 124L184 125L183 124M191.333 124.667L191.667 125.333L191.333 124.667M160 125L160 128L161 128L160 125M178.333 125.667L178.667 126.333L178.333 125.667M186 125L187 126L186 125M194 126L195 127L194 126M169.333 127.667L169.667 128.333L169.333 127.667M185 127L186 128L185 127M160 129L160 130L167 130L160 129M172.333 129.667L172.667 130.333L172.333 129.667M184 129L185 130L184 129M190 129L190 132L191 132L190 129M194 129L194 130L201 130L194 129M156.333 130.667L156.667 131.333L156.333 130.667M179.333 130.667L179.667 131.333L179.333 130.667M166 131L167 132L166 131M183 131L184 132L183 131M165 132L166 133L165 132z"/>
<path style="fill:#454f6b; stroke:none;" d="M74 147L74 148L89 148L74 147M102 180L103 180L103 148L118 148C96.5188 138.986 102 167.362 102 180M131 180L132 180L132 148L153 148L153 153L138 153L138 161L151 161L151 160L139 160L139 154L146.002 153.999C148.52 153.982 157.655 152.264 152.392 148.027C149.556 145.744 134.363 145.654 132.028 148.603C127.642 154.141 131 172.991 131 180M165 148L165 149L173 149L165 148M187 147L187 148L194 148L187 147M205 147L205 148L213 149L205 147M216 147L216 148L223 148L216 147M228 180L229 180L229 148L236 148C223.674 142.884 228 172.918 228 180M248 147L248 148L255 148L248 147M269 147L269 148L272 148L269 147z"/>
<path style="fill:#fdb827; stroke:none;" d="M272 147L272 148L275 148L272 147z"/>
<path style="fill:#454f6b; stroke:none;" d="M275 147L275 148L278 148L275 147z"/>
<path style="fill:#f2f0f3; stroke:none;" d="M74 148C74 153.98 70.7614 175.137 75.6034 178.972C84.8347 186.284 107.895 171.817 93 164C105.065 148.885 84.2298 148 74 148z"/>
<path style="fill:#fdb827; stroke:none;" d="M90 148L91 149L90 148z"/>
<path style="fill:#454f6b; stroke:none;" d="M91.6667 148.333L92.3333 148.667L91.6667 148.333z"/>
<path style="fill:#f2f0f3; stroke:none;" d="M103 148L103 180L109 180L109 168L127 180L121 166C127.224 162.366 128.037 152.908 120.981 149.318C115.921 146.744 108.514 148 103 148z"/>
<path style="fill:#fdb827; stroke:none;" d="M119 148L120 149L119 148z"/>
<path style="fill:#454f6b; stroke:none;" d="M120 148L121 149L120 148z"/>
<path style="fill:#f2f0f3; stroke:none;" d="M132 148L132 180L153 180L153 175L138 175L138 166C143.326 166 149.908 167.543 151 161L138 161L138 153L153 153L153 148L132 148M155 180C162.447 179.752 172.906 164.503 177 180L183 180C182.253 171.496 177.881 162.918 174.807 155.001C173.667 152.065 172.306 147.53 168.206 148.377C165.018 149.034 164.023 153.407 163.05 156C160.133 163.773 156.217 171.757 155 180M187 148C187 155.918 182.788 179.204 193 180L196 167L198 167C200.601 173.873 204.17 179.746 212 180L203.248 162L212 148C202.482 148.034 199.026 154.635 194 162L193 148L187 148z"/>
<path style="fill:#fdb827; stroke:none;" d="M193 148L194 162L195 162L193 148z"/>
<path style="fill:#f2f0f3; stroke:none;" d="M216 148C216 155.918 211.788 179.204 222 180L222 148L216 148z"/>
<path style="fill:#fdb827; stroke:none;" d="M222 148L222 179L223 179L222 148z"/>
<path style="fill:#f2f0f3; stroke:none;" d="M229 148L229 180L235 180L235 160C239.964 164.813 242.849 176.767 249.324 179.377C251.664 180.321 253.976 179.233 254.682 176.852C257.004 169.022 257.973 148.327 248 148L248 168C242.853 160.365 239.307 148.123 229 148z"/>
<path style="fill:#fdb827; stroke:none;" d="M254 148L255 149L254 148z"/>
<path style="fill:#454f6b; stroke:none;" d="M265 150L268 149L265 150z"/>
<path style="fill:#f2f0f3; stroke:none;" d="M279 168C277.458 188.214 253.67 155.402 273.001 153.466C277.157 153.05 280.574 157.66 285 158C283.776 147.018 269.018 144.098 262.703 153.044C253.392 166.234 266.999 188.583 282.852 177.91C290.971 172.445 283.349 156.72 274.662 164.008C271.366 166.774 277.443 167.879 279 168z"/>
<path style="fill:#454f6b; stroke:none;" d="M279.667 148.333L280.333 148.667L279.667 148.333M93 149L94 150L93 149M122 149L123 150L122 149z"/>
<path style="fill:#fdb827; stroke:none;" d="M165 149L166 150L165 149M203 149L204 150L203 149M211 149L212 150L211 149z"/>
<path style="fill:#454f6b; stroke:none;" d="M236 149L237 150L236 149M281 149L282 150L281 149z"/>
<path style="fill:#fdb827; stroke:none;" d="M94 150L96 152L94 150z"/>
<path style="fill:#454f6b; stroke:none;" d="M95 150L96 151L95 150z"/>
<path style="fill:#fdb827; stroke:none;" d="M123 150L124 151L123 150z"/>
<path style="fill:#454f6b; stroke:none;" d="M164.333 150.667L164.667 151.333L164.333 150.667M173 150L174 151L173 150M202 150L203 151L202 150M237 150L238 151L237 150z"/>
<path style="fill:#fdb827; stroke:none;" d="M264 150L265 151L264 150z"/>
<path style="fill:#454f6b; stroke:none;" d="M282 150L283 151L282 150z"/>
<path style="fill:#fdb827; stroke:none;" d="M124 151L125 152L124 151M173 151L174 152L173 151z"/>
<path style="fill:#454f6b; stroke:none;" d="M201 151L202 152L201 151M210 151L211 152L210 151z"/>
<path style="fill:#fdb827; stroke:none;" d="M237 151L238 152L237 151M263 151L264 152L263 151z"/>
<path style="fill:#454f6b; stroke:none;" d="M283 151L284 152L283 151M96 152L97 153L96 152M125 152L126 153L125 152z"/>
<path style="fill:#fdb827; stroke:none;" d="M164 152L165 153L164 152z"/>
<path style="fill:#454f6b; stroke:none;" d="M174.333 152.667L174.667 153.333L174.333 152.667M200 152L201 153L200 152M209 152L210 153L209 152M238 152L239 153L238 152M262 152L263 153L262 152M284 152L285 153L284 152M81 153L81 154L88 154L81 153z"/>
<path style="fill:#fdb827; stroke:none;" d="M88 153L89 154L88 153M109 153L110 154L109 153z"/>
<path style="fill:#454f6b; stroke:none;" d="M117 163L117 162L110 162L110 154L117 154C108.198 150.347 105.981 162.869 117 163z"/>
<path style="fill:#fdb827; stroke:none;" d="M117 153L118 154L117 153z"/>
<path style="fill:#454f6b; stroke:none;" d="M163.333 153.667L163.667 154.333L163.333 153.667z"/>
<path style="fill:#fdb827; stroke:none;" d="M200 153L201 154L200 153z"/>
<path style="fill:#454f6b; stroke:none;" d="M208 153L209 154L208 153M261 153L262 154L261 153M270.667 153.333L271.333 153.667L270.667 153.333M275.667 153.333L276.333 153.667L275.667 153.333z"/>
<path style="fill:#fdb827; stroke:none;" d="M284 153L285 154L284 153z"/>
<path style="fill:#010308; stroke:none;" d="M81 154L81 161C90.869 160.761 91.0872 154.036 81 154z"/>
<path style="fill:#454f6b; stroke:none;" d="M89 154L90 155L89 154M97 154L97 159L98 159L97 154z"/>
<path style="fill:#010308; stroke:none;" d="M110 154L110 162C120.647 161.962 120.647 154.038 110 154z"/>
<path style="fill:#454f6b; stroke:none;" d="M118 154L119 155L118 154M126.333 154.667L126.667 155.333L126.333 154.667z"/>
<path style="fill:#fdb827; stroke:none;" d="M174 154L175 155L174 154z"/>
<path style="fill:#454f6b; stroke:none;" d="M199 154L200 155L199 154z"/>
<path style="fill:#fdb827; stroke:none;" d="M207 154L208 155L207 154z"/>
<path style="fill:#454f6b; stroke:none;" d="M239 154L240 155L239 154z"/>
<path style="fill:#fdb827; stroke:none;" d="M261 154L262 155L261 154z"/>
<path style="fill:#454f6b; stroke:none;" d="M269 154L270 155L269 154M277 154L278 155L277 154M285.333 154.667L285.667 155.333L285.333 154.667z"/>
<path style="fill:#fdb827; stroke:none;" d="M90 155L91 156L90 155M119 155L120 156L119 155z"/>
<path style="fill:#454f6b; stroke:none;" d="M175.333 155.667L175.667 156.333L175.333 155.667M198 155L199 156L198 155M240 155L241 156L240 155M260.333 155.667L260.667 156.333L260.333 155.667M268 155L269 156L268 155M278.333 155.667L278.667 156.333L278.333 155.667M90.3333 156.667L90.6667 157.333L90.3333 156.667M119 156L119 160L120 160L119 156z"/>
<path style="fill:#fdb827; stroke:none;" d="M126 156L126 159L127 159L126 156z"/>
<path style="fill:#454f6b; stroke:none;" d="M162.333 156.667L162.667 157.333L162.333 156.667M197 156L198 157L197 156M206 156L207 157L206 156z"/>
<path style="fill:#fdb827; stroke:none;" d="M240 156L241 157L240 156z"/>
<path style="fill:#454f6b; stroke:none;" d="M267.333 156.667L267.667 157.333L267.333 156.667z"/>
<path style="fill:#fdb827; stroke:none;" d="M285.333 156.667L285.667 157.333L285.333 156.667M168 157L169 158L168 157z"/>
<path style="fill:#454f6b; stroke:none;" d="M169 157L168 160L169 157M205 157L206 158L205 157M241 157L242 158L241 157z"/>
<path style="fill:#fdb827; stroke:none;" d="M260 157L261 158L260 157M279 157L280 158L279 157M90 158L91 159L90 158z"/>
<path style="fill:#454f6b; stroke:none;" d="M176 158L177 159L176 158M196 158L197 159L196 158M204 158L205 159L204 158M280 158L280 159L285 159L280 158M89 159L90 160L89 159z"/>
<path style="fill:#fdb827; stroke:none;" d="M96 159L97 160L96 159z"/>
<path style="fill:#454f6b; stroke:none;" d="M126.333 159.667L126.667 160.333L126.333 159.667M161 159L162 160L161 159z"/>
<path style="fill:#010308; stroke:none;" d="M169 159L166 167L172 167L169 159z"/>
<path style="fill:#fdb827; stroke:none;" d="M170 159L171 160L170 159M176 159L177 160L176 159z"/>
<path style="fill:#454f6b; stroke:none;" d="M195 159L196 160L195 159z"/>
<path style="fill:#fdb827; stroke:none;" d="M203 159L204 160L203 159z"/>
<path style="fill:#454f6b; stroke:none;" d="M242 159L243 160L242 159M259 159L259 169L260 169L259 159z"/>
<path style="fill:#fdb827; stroke:none;" d="M266.333 159.667L266.667 160.333L266.333 159.667z"/>
<path style="fill:#454f6b; stroke:none;" d="M87.6667 160.333L88.3333 160.667L87.6667 160.333M96 160L97 161L96 160z"/>
<path style="fill:#fdb827; stroke:none;" d="M119 160L120 161L119 160M161 160L162 161L161 160M167 160L168 161L167 160z"/>
<path style="fill:#454f6b; stroke:none;" d="M170.333 160.667L170.667 161.333L170.333 160.667M177.333 160.667L177.667 161.333L177.333 160.667M194 160L195 161L194 160M235 160L235 180L236 180L235 160z"/>
<path style="fill:#fdb827; stroke:none;" d="M236 160L237 161L236 160z"/>
<path style="fill:#454f6b; stroke:none;" d="M243 160L244 161L243 160M95 161L96 162L95 161M118 161L119 162L118 161M160.333 161.667L160.667 162.333L160.333 161.667M167.333 161.667L167.667 162.333L167.333 161.667M202 161L203 162L202 161z"/>
<path style="fill:#fdb827; stroke:none;" d="M243 161L244 162L243 161z"/>
<path style="fill:#454f6b; stroke:none;" d="M266 161L266 167L267 167L266 161M94.3333 162.667L94.6667 163.333L94.3333 162.667z"/>
<path style="fill:#fdb827; stroke:none;" d="M109 162L110 163L109 162z"/>
<path style="fill:#454f6b; stroke:none;" d="M125 162L126 163L125 162z"/>
<path style="fill:#fdb827; stroke:none;" d="M171 162L172 163L171 162M177 162L178 163L177 162z"/>
<path style="fill:#454f6b; stroke:none;" d="M237 162L238 163L237 162M244 162L245 163L244 162M274 162L274 163L285 163L274 162z"/>
<path style="fill:#fdb827; stroke:none;" d="M93 163L94 164L93 163M166 163L167 164L166 163z"/>
<path style="fill:#454f6b; stroke:none;" d="M171.333 163.667L171.667 164.333L171.333 163.667M178.333 163.667L178.667 164.333L178.333 163.667M202 163L203 164L202 163M245.333 163.667L245.667 164.333L245.333 163.667z"/>
<path style="fill:#fdb827; stroke:none;" d="M273 163L274 164L273 163M285 163L286 164L285 163z"/>
<path style="fill:#454f6b; stroke:none;" d="M95 164L96 165L95 164M124 164L125 165L124 164M159.333 164.667L159.667 165.333L159.333 164.667M166.333 164.667L166.667 165.333L166.333 164.667M203 164L204 165L203 164M238 164L239 165L238 164M96 165L97 166L96 165z"/>
<path style="fill:#fdb827; stroke:none;" d="M122 165L123 166L122 165z"/>
<path style="fill:#454f6b; stroke:none;" d="M123 165L124 166L123 165z"/>
<path style="fill:#fdb827; stroke:none;" d="M150 165L151 166L150 165M172 165L173 166L172 165M239 165L240 166L239 165z"/>
<path style="fill:#454f6b; stroke:none;" d="M246 165L247 166L246 165M81 166L82 167L81 166z"/>
<path style="fill:#010308; stroke:none;" d="M81 174C99.0775 173.936 81.1819 158.649 81 174z"/>
<path style="fill:#454f6b; stroke:none;" d="M87.6667 166.333L88.3333 166.667L87.6667 166.333z"/>
<path style="fill:#fdb827; stroke:none;" d="M89 166L90 167L89 166z"/>
<path style="fill:#454f6b; stroke:none;" d="M97.3333 166.667L97.6667 167.333L97.3333 166.667M121.333 166.667L121.667 167.333L121.333 166.667M138 166C138.037 176.505 144.199 175 153 175L153 174L139 174L138 166M140 166L140 167L150 167L140 166z"/>
<path style="fill:#fdb827; stroke:none;" d="M165 166L166 167L165 166z"/>
<path style="fill:#454f6b; stroke:none;" d="M172 166L165 167L165 168L172 166M179 166L180 167L179 166M204 166L205 167L204 166M239 166L240 167L239 166M247.333 166.667L247.667 167.333L247.333 166.667M90.3333 167.667L90.6667 168.333L90.3333 167.667M158 167L159 168L158 167z"/>
<path style="fill:#fdb827; stroke:none;" d="M179 167L180 168L179 167M196.667 167.333L197.333 167.667L196.667 167.333z"/>
<path style="fill:#454f6b; stroke:none;" d="M205 167L206 168L205 167M240 167L241 168L240 167z"/>
<path style="fill:#fdb827; stroke:none;" d="M266 167L267 168L266 167M273 167L274 168L273 167M109 168L110 169L109 168z"/>
<path style="fill:#454f6b; stroke:none;" d="M110 168L110 169L115 169L110 168M122.333 168.667L122.667 169.333L122.333 168.667z"/>
<path style="fill:#fdb827; stroke:none;" d="M158 168L159 169L158 168z"/>
<path style="fill:#454f6b; stroke:none;" d="M180.333 168.667L180.667 169.333L180.333 168.667M197 168L198 169L197 168M278 168L279 169L278 168z"/>
<path style="fill:#fdb827; stroke:none;" d="M91.3333 169.667L91.6667 170.333L91.3333 169.667z"/>
<path style="fill:#454f6b; stroke:none;" d="M109 169L109 180L110 180L109 169z"/>
<path style="fill:#fdb827; stroke:none;" d="M115 169L116 170L115 169z"/>
<path style="fill:#454f6b; stroke:none;" d="M157.333 169.667L157.667 170.333L157.333 169.667M195 169L196 170L195 169M198 169L199 170L198 169M206 169L207 170L206 169M241 169L242 170L241 169M267.333 169.667L267.667 170.333L267.333 169.667M115 170L116 171L115 170M123 170L124 171L123 170z"/>
<path style="fill:#fdb827; stroke:none;" d="M180 170L181 171L180 170z"/>
<path style="fill:#454f6b; stroke:none;" d="M194 170L195 171L194 170z"/>
<path style="fill:#fdb827; stroke:none;" d="M199 170L200 171L199 170z"/>
<path style="fill:#454f6b; stroke:none;" d="M207 170L208 171L207 170M242.333 170.667L242.667 171.333L242.333 170.667z"/>
<path style="fill:#fdb827; stroke:none;" d="M260 170L261 171L260 170M116 171L117 172L116 171M123 171L124 172L123 171z"/>
<path style="fill:#454f6b; stroke:none;" d="M181.333 171.667L181.667 172.333L181.333 171.667z"/>
<path style="fill:#fdb827; stroke:none;" d="M193 171L193 179L194 179L193 171z"/>
<path style="fill:#454f6b; stroke:none;" d="M199 171L200 172L199 171M260 171L261 172L260 171M90 172L91 173L90 172M116 172L117 173L116 172M124 172L125 173L124 172M156.333 172.667L156.667 173.333L156.333 172.667M200 172L201 173L200 172M208 172L209 173L208 172M243 172L244 173L243 172M268 172L269 173L268 172M89 173L90 174L89 173z"/>
<path style="fill:#fdb827; stroke:none;" d="M97 173L98 174L97 173z"/>
<path style="fill:#454f6b; stroke:none;" d="M117.333 173.667L117.667 174.333L117.333 173.667z"/>
<path style="fill:#fdb827; stroke:none;" d="M124 173L125 174L124 173z"/>
<path style="fill:#454f6b; stroke:none;" d="M163 175L175 174C171.479 172.522 165.661 171.955 163 175z"/>
<path style="fill:#fdb827; stroke:none;" d="M201 173L202 174L201 173z"/>
<path style="fill:#454f6b; stroke:none;" d="M209 173L210 174L209 173z"/>
<path style="fill:#fdb827; stroke:none;" d="M244 173L245 174L244 173z"/>
<path style="fill:#454f6b; stroke:none;" d="M261 173L262 174L261 173M269 173L270 174L269 173M278 173L279 174L278 173M81 174L81 175L87 175L81 174z"/>
<path style="fill:#fdb827; stroke:none;" d="M87 174L88 175L87 174z"/>
<path style="fill:#454f6b; stroke:none;" d="M97 174L98 175L97 174M125 174L126 175L125 174z"/>
<path style="fill:#fdb827; stroke:none;" d="M138 174L139 175L138 174M175 174L176 175L175 174z"/>
<path style="fill:#454f6b; stroke:none;" d="M182 174L183 175L182 174M201 174L202 175L201 174z"/>
<path style="fill:#fdb827; stroke:none;" d="M209 174L210 175L209 174z"/>
<path style="fill:#454f6b; stroke:none;" d="M244 174L245 175L244 174M271 174L271 175L277 175L271 174z"/>
<path style="fill:#fdb827; stroke:none;" d="M277 174L278 175L277 174M96 175L97 176L96 175z"/>
<path style="fill:#454f6b; stroke:none;" d="M118.333 175.667L118.667 176.333L118.333 175.667z"/>
<path style="fill:#fdb827; stroke:none;" d="M125 175L126 176L125 175z"/>
<path style="fill:#454f6b; stroke:none;" d="M153 175L155 180L153 175M155 175L156 176L155 175z"/>
<path style="fill:#fdb827; stroke:none;" d="M162 175L163 176L162 175z"/>
<path style="fill:#454f6b; stroke:none;" d="M175.333 175.667L175.667 176.333L175.333 175.667z"/>
<path style="fill:#fdb827; stroke:none;" d="M182 175L183 176L182 175z"/>
<path style="fill:#454f6b; stroke:none;" d="M202 175L203 176L202 175M210 175L211 176L210 175M245 175L246 176L245 175M262 175L263 176L262 175M96 176L97 177L96 176M126 176L127 177L126 176z"/>
<path style="fill:#fdb827; stroke:none;" d="M155 176L156 177L155 176z"/>
<path style="fill:#454f6b; stroke:none;" d="M162.333 176.667L162.667 177.333L162.333 176.667M211 176L212 177L211 176M263 176L264 177L263 176M285 176L286 177L285 176M95 177L96 178L95 177M119.333 177.667L119.667 178.333L119.333 177.667z"/>
<path style="fill:#fdb827; stroke:none;" d="M176 177L177 178L176 177z"/>
<path style="fill:#454f6b; stroke:none;" d="M183 177L184 178L183 177M203 177L204 178L203 177z"/>
<path style="fill:#fdb827; stroke:none;" d="M211 177L212 178L211 177z"/>
<path style="fill:#454f6b; stroke:none;" d="M246 177L247 178L246 177M264 177L265 178L264 177M284 177L285 178L284 177M93 178L94 179L93 178M127.333 178.667L127.667 179.333L127.333 178.667z"/>
<path style="fill:#fdb827; stroke:none;" d="M161 178L162 179L161 178z"/>
<path style="fill:#454f6b; stroke:none;" d="M176.333 178.667L176.667 179.333L176.333 178.667z"/>
<path style="fill:#fdb827; stroke:none;" d="M183.333 178.667L183.667 179.333L183.333 178.667z"/>
<path style="fill:#454f6b; stroke:none;" d="M204.333 178.667L204.667 179.333L204.333 178.667M212 178L213 179L212 178z"/>
<path style="fill:#fdb827; stroke:none;" d="M247 178L248 179L247 178z"/>
<path style="fill:#454f6b; stroke:none;" d="M265 178L266 179L265 178z"/>
<path style="fill:#fdb827; stroke:none;" d="M266 178L267 179L266 178z"/>
<path style="fill:#454f6b; stroke:none;" d="M282 178L283 179L282 178z"/>
<path style="fill:#fdb827; stroke:none;" d="M74 179L75 180L74 179M89 179L90 180L89 179z"/>
<path style="fill:#454f6b; stroke:none;" d="M90.6667 179.333L91.3333 179.667L90.6667 179.333M120 179L121 180L120 179M161 179L162 180L161 179z"/>
<path style="fill:#fdb827; stroke:none;" d="M187 179L188 180L187 179z"/>
<path style="fill:#454f6b; stroke:none;" d="M193 179L194 180L193 179z"/>
<path style="fill:#fdb827; stroke:none;" d="M205 179L206 180L205 179M212 179L213 180L212 179M216 179L217 180L216 179z"/>
<path style="fill:#454f6b; stroke:none;" d="M222 179L223 180L222 179M247 179L248 180L247 179z"/>
<path style="fill:#fdb827; stroke:none;" d="M254 179L255 180L254 179z"/>
<path style="fill:#454f6b; stroke:none;" d="M267.667 179.333L268.333 179.667L267.667 179.333M279.667 179.333L280.333 179.667L279.667 179.333M270 180L270 181L278 181L270 180M116 194L116 195L244 195C233.734 190.692 216.158 194 205 194L116 194M112.667 195.333L113.333 195.667L112.667 195.333z"/>
<path style="fill:#fdb827; stroke:none;" d="M114 195.529C88.4255 201.43 82.8104 238.627 109 248.881C120.837 253.516 136.491 251 149 251L216 251C226.86 251 239.597 252.832 250 249.239C276.786 239.987 271.772 204.211 248 196.108C235.918 191.99 218.7 195 206 195L145 195C135.184 195 123.587 193.317 114 195.529z"/>
<path style="fill:#454f6b; stroke:none;" d="M246.667 195.333L247.333 195.667L246.667 195.333M110 196L111 197L110 196M249 196L250 197L249 196M108 197L109 198L108 197M251 197L252 198L251 197M106 198L107 199L106 198M253 198L254 199L253 198M104.667 199.333L105.333 199.667L104.667 199.333M254.667 199.333L255.333 199.667L254.667 199.333M224 206L224 207L227 207L224 206M123 207L123 238L130 237L132 221L129 218L129 237L124 237L123 207z"/>
<path style="fill:#010308; stroke:none;" d="M124 207L124 237L129 237L129 218C135.297 224.105 137.019 236.668 147 237L147 207L142 207L142 227C136.95 220.382 133.269 207.714 124 207z"/>
<path style="fill:#454f6b; stroke:none;" d="M129 207L130 208L129 207M141 207L141 227L142 227L141 207M147 207L147 237L142 237L142 238L148 238L147 207M153 207C153 213.636 149.861 231.136 154.028 236.397C158.193 241.656 173.465 238.872 174 232L160 232L161 224C151.849 231.998 168.597 233 173 233L173 237L154 237L153 207z"/>
<path style="fill:#010308; stroke:none;" d="M154 207L154 237L173 237L173 233C164.876 233 159.114 233.676 159 224L171 224L171 220C164.055 219.999 159.264 220.112 159 212L173 212L173 207L154 207z"/>
<path style="fill:#454f6b; stroke:none;" d="M173 207L173 212L174 212L173 207M175 207L176 208L175 207z"/>
<path style="fill:#010308; stroke:none;" d="M176 207L182 237C191.502 236.688 190.892 225.485 193 218C195.249 222.479 195.453 233.104 199.559 235.953C202.75 238.167 204.841 234.575 205.556 231.981C207.806 223.823 209.389 215.307 211 207C202.507 207.662 202.3 221.038 202 228L200 228L196 207L191 207L186 228C183.449 221.2 184.843 207.689 176 207z"/>
<path style="fill:#454f6b; stroke:none;" d="M181 207L182 208L181 207M190 207L190 210L191 210L190 207M205 207L206 208L205 207M220.667 207.333L221.333 207.667L220.667 207.333z"/>
<path style="fill:#010308; stroke:none;" d="M214 228C215.965 237.709 235.24 241.935 235.847 229.985C236.253 221.988 219.734 219.055 222.037 214.11C224.549 208.717 232.094 215.693 236 216C234.979 206.911 219.696 202.525 215.746 212.108C211.377 222.71 225.569 221.796 229.11 227.414C231.985 231.978 225.001 233.097 222.17 231.451C219.111 229.672 217.648 228.28 214 228z"/>
<path style="fill:#454f6b; stroke:none;" d="M230 207L231 208L230 207M130.333 208.667L130.667 209.333L130.333 208.667M196 208L196 211L197 211L196 208M218 208L219 209L218 208M232 208L233 209L232 208M204 209L204 213L205 213L204 209M210 209L210 212L211 212L210 209M131 210L132 211L131 210M176 210L176 213L177 213L176 210M182 210L182 214L183 214L182 210M215 211L216 212L215 211M223 211L223 212L228 212L223 211M235 211L236 212L235 211M132 212L133 213L132 212M159 212L159 219L160 219L159 212M189.333 212.667L189.667 213.333L189.333 212.667M197 212L197 215L198 215L197 212M222 212L223 213L222 212M228 212L229 213L228 212M133 213L134 214L133 213M214 213L214 217L215 217L214 213M236 213L236 216L237 216L236 213M209 214L209 217L210 217L209 214M220.333 214.667L220.667 215.333L220.333 214.667M230.333 214.667L230.667 215.333L230.333 214.667M134 215L135 216L134 215M177.333 215.667L177.667 216.333L177.333 215.667M203 215L203 218L204 218L203 215M183 216L183 219L184 219L183 216M188 216L188 219L189 219L188 216M135 217L136 218L135 217M198.333 217.667L198.667 218.333L198.333 217.667M221 217L222 218L221 217M136 218L137 219L136 218M193 218L194 219L193 218M208 218L208 221L209 221L208 218M215 218L216 219L215 218M223 218L224 219L223 218M160 219L160 220L171 220L171 224L172 224L172 219L160 219M178 219L178 222L179 222L178 219M192 219L192 222L193 222L192 219M225.667 219.333L226.333 219.667L225.667 219.333M137 220L138 221L137 220M187 220L187 223L188 223L187 220M194.333 220.667L194.667 221.333L194.333 220.667M202 220L202 223L203 223L202 220M216 220L217 221L216 220M228.667 220.333L229.333 220.667L228.667 220.333M184 221L184 224L185 224L184 221M199 221L199 224L200 224L199 221M231 221L232 222L231 221M132 222L133 223L132 222M138 222L139 223L138 222M219 222L220 223L219 222M233 222L234 223L233 222M133.333 223.667L133.667 224.333L133.333 223.667M139 223L140 224L139 223M191 223L191 226L192 226L191 223M207 223L207 226L208 226L207 223M221 223L222 224L221 223M234 223L235 224L234 223M162 224L162 225L171 225L162 224M179.333 224.667L179.667 225.333L179.333 224.667M195 224L195 227L196 227L195 224M223.667 224.333L224.333 224.667L223.667 224.333M235.333 224.667L235.667 225.333L235.333 224.667M134 225L135 226L134 225M186 225L185 228L186 225M200 225L200 228L202 228L202 225L200 225M226.667 225.333L227.333 225.667L226.667 225.333M229 226L230 227L229 226M236 226L236 233L237 233L236 226M135 227L136 228L135 227M190 227L190 230L191 230L190 227M206 227L206 230L207 230L206 227M136 228L137 229L136 228M180 228L180 231L181 231L180 228M196 228L196 231L197 231L196 228M213.333 228.667L213.667 229.333L213.333 228.667M219 228L220 229L219 228M230 228L230 231L231 231L230 228M137 230L138 231L137 230M220 230L221 231L220 230M214.333 231.667L214.667 232.333L214.333 231.667M221 231L222 232L221 231M229 231L230 232L229 231M138 232L139 233L138 232M189.333 232.667L189.667 233.333L189.333 232.667M197 232L197 235L198 235L197 232M205 232L205 235L206 235L205 232M222.667 232.333L223.333 232.667L222.667 232.333M228 232L229 233L228 232M139 233L140 234L139 233M181.333 233.667L181.667 234.333L181.333 233.667M215 233L216 234L215 233M235 233L236 234L235 233M216 234L217 235L216 234M140 235L141 236L140 235M217 235L218 236L217 235M233 235L234 236L233 235M188 236L189 237L188 236M198 236L199 237L198 236M204 236L205 237L204 236M219 236L220 237L219 236M231.667 236.333L232.333 236.667L231.667 236.333M182 237L182 238L188 238L182 237M199 237L199 238L204 238L199 237M221 237L221 238L230 238L221 237z"/>
</svg>
